<svg width="24" height="24" viewBox="0 0 24 24" fill="none" xmlns="http://www.w3.org/2000/svg">
<g id="banco-inter 1">
<path id="Vector" d="M9.07694 13.9856C9.39141 13.7103 9.59635 13.3485 9.69296 12.9007H12.7973C12.655 14.1808 12.1397 15.2172 11.2516 16.0107C10.3631 16.8041 9.26934 17.2011 7.97101 17.2011C7.02394 17.2011 6.17145 16.9929 5.41315 16.577C4.65485 16.161 4.06308 15.583 3.63785 14.8429C3.21262 14.1028 3 13.2721 3 12.3505C3 11.4289 3.21262 10.5983 3.63785 9.85816C4.06308 9.11805 4.65485 8.54003 5.41315 8.1241C6.17145 7.70776 7.02394 7.5 7.97101 7.5C9.24873 7.5 10.3276 7.88279 11.2075 8.64877C12.0871 9.41434 12.6069 10.418 12.7658 11.6593H9.70589C9.57614 11.2499 9.35423 10.9204 9.03975 10.6706C8.72567 10.4212 8.3736 10.2963 7.98394 10.2963C7.44755 10.2963 7.01505 10.4851 6.68642 10.8626C6.35699 11.2402 6.19288 11.7361 6.19288 12.3501C6.19288 12.9605 6.3586 13.4544 6.68925 13.832C7.0207 14.2095 7.4516 14.3979 7.98394 14.3979C8.39867 14.3979 8.76286 14.2604 9.07694 13.9856ZM20.0958 11.4633C20.6985 12.0413 21 12.7891 21 13.7054C21 14.7532 20.6532 15.598 19.9592 16.239C19.2647 16.8805 18.3504 17.2011 17.2145 17.2011C16.0925 17.2011 15.1801 16.8793 14.4772 16.2358C13.7739 15.5919 13.4226 14.758 13.4226 13.7325C13.4226 13.1727 13.5192 12.6092 13.712 12.0425C13.9049 11.4758 14.2032 10.8558 14.607 10.1831L16.0338 7.81043L19.0493 7.81003L17.3609 10.6096C17.5294 10.6007 17.6624 10.5963 17.7602 10.5963C18.7138 10.5963 19.4923 10.8853 20.0958 11.4633ZM18.0598 14.5656C18.2768 14.3445 18.3856 14.0579 18.3856 13.7054C18.3856 13.3534 18.2768 13.0644 18.0598 12.8384C17.8423 12.6125 17.5606 12.4997 17.215 12.4997C16.8689 12.4997 16.5868 12.6129 16.3701 12.8384C16.1523 13.0644 16.0439 13.3534 16.0439 13.7054C16.0439 14.0579 16.1523 14.3445 16.3697 14.5656C16.5868 14.7871 16.8689 14.8979 17.2145 14.8979C17.5606 14.8979 17.8427 14.7871 18.0598 14.5656Z" fill="white"/>
</g>
</svg>
