<svg width="122" height="32" viewBox="0 0 122 32" fill="none" xmlns="http://www.w3.org/2000/svg">
<path d="M31.3748 11.432V11.8228C31.2788 11.8228 31.176 11.8434 31.0663 11.8846C30.9703 11.9257 30.9223 11.9806 30.9223 12.0491L30.9428 21.656C30.9428 23.3703 30.4491 24.6937 29.4617 25.6263C28.4743 26.5726 27.1303 27.0457 25.4297 27.0457C24.7303 27.0457 23.9897 26.8468 23.208 26.4491C22.4263 26.0651 21.7063 25.4891 21.048 24.7211C21.0343 24.68 20.9931 24.6594 20.9245 24.6594C20.8148 24.6594 20.6983 24.7074 20.5748 24.8034L20.3485 24.4948L22.92 22.4583L23.1668 22.7668C23.0983 22.8217 23.0297 22.8971 22.9611 22.9931C22.9063 23.0891 22.8994 23.1714 22.9405 23.24C23.2834 23.72 23.6537 24.0766 24.0514 24.3097C24.4491 24.5428 24.9291 24.6594 25.4914 24.6594C26.3828 24.6594 27.0823 24.44 27.5897 24.0011C28.0971 23.576 28.3508 22.9246 28.3508 22.0468V20.1748C27.4868 20.8468 26.4925 21.1828 25.368 21.1828C24.3531 21.1828 23.448 20.9771 22.6525 20.5657C21.8708 20.1406 21.2537 19.5508 20.8011 18.7966C20.3623 18.0286 20.1428 17.1508 20.1428 16.1634C20.1428 15.176 20.376 14.312 20.8423 13.5714C21.3085 12.8171 21.9394 12.2411 22.7348 11.8434C23.5303 11.432 24.408 11.2263 25.368 11.2263C26.52 11.2263 27.5143 11.5417 28.3508 12.1726V11.432H31.3748ZM25.4914 18.9817C26.424 18.9817 27.144 18.7348 27.6514 18.2411C28.1588 17.7337 28.4125 17.0686 28.4125 16.2457C28.4125 15.4228 28.1383 14.744 27.5897 14.2091C27.0411 13.6743 26.3417 13.4068 25.4914 13.4068C24.6685 13.4068 23.9828 13.6674 23.4343 14.1886C22.8994 14.7097 22.632 15.3817 22.632 16.2046C22.632 17.0548 22.9063 17.7337 23.4548 18.2411C24.0034 18.7348 24.6823 18.9817 25.4914 18.9817Z" fill="#32A98C"/>
<path d="M39.2634 21.1417C38.2485 21.1417 37.3502 20.9291 36.5685 20.504C35.8005 20.0651 35.1971 19.4686 34.7582 18.7143C34.3331 17.96 34.1205 17.1097 34.1205 16.1634C34.1205 15.2308 34.3331 14.3806 34.7582 13.6126C35.1971 12.8446 35.8074 12.2411 36.5891 11.8023C37.3708 11.3497 38.2622 11.1234 39.2634 11.1234C40.2234 11.1234 41.0942 11.3428 41.8759 11.7817C42.6576 12.2068 43.2748 12.8034 43.7274 13.5714C44.1799 14.3257 44.4062 15.1897 44.4062 16.1634C44.4062 17.0137 44.2005 17.8228 43.7891 18.5908C43.3914 19.3451 42.8016 19.9623 42.0199 20.4423C41.2382 20.9086 40.3194 21.1417 39.2634 21.1417ZM39.2634 18.776C40.0725 18.776 40.7239 18.5428 41.2176 18.0766C41.7251 17.5966 41.9788 16.9794 41.9788 16.2251C41.9788 15.4434 41.7251 14.7988 41.2176 14.2914C40.7239 13.784 40.0725 13.5303 39.2634 13.5303C38.5091 13.5303 37.8782 13.784 37.3708 14.2914C36.8634 14.7851 36.6096 15.4091 36.6096 16.1634C36.6096 16.9588 36.8634 17.5966 37.3708 18.0766C37.8782 18.5428 38.5091 18.776 39.2634 18.776Z" fill="#32A98C"/>
<path d="M62.3634 20.2777C62.3634 20.3463 62.4114 20.4011 62.5074 20.4423C62.6171 20.4834 62.7269 20.504 62.8366 20.504V20.8949H59.216V20.504C59.3257 20.504 59.4286 20.4834 59.5246 20.4423C59.6343 20.4011 59.6891 20.3463 59.6891 20.2777V15.9989C59.6891 14.2983 59.1269 13.448 58.0023 13.448C57.4537 13.448 57.0286 13.6743 56.7269 14.1269C56.4251 14.5794 56.2743 15.2583 56.2743 16.1634V20.2777C56.2743 20.3463 56.3223 20.4011 56.4183 20.4423C56.528 20.4834 56.6377 20.504 56.7474 20.504V20.8949H53.1474V20.504C53.2571 20.504 53.36 20.4834 53.456 20.4423C53.5657 20.4011 53.6206 20.3463 53.6206 20.2777V15.9989C53.6206 15.2446 53.504 14.6343 53.2709 14.168C53.0377 13.688 52.6057 13.448 51.9749 13.448C51.4811 13.448 51.0834 13.6331 50.7817 14.0034C50.4937 14.36 50.3223 14.9017 50.2674 15.6286V20.2777C50.2674 20.3463 50.3223 20.4011 50.432 20.4423C50.5417 20.4834 50.6446 20.504 50.7406 20.504V20.8949H47.0789V20.504C47.1749 20.504 47.2777 20.4834 47.3874 20.4423C47.4971 20.4011 47.552 20.3463 47.552 20.2777V12.0491C47.552 11.9806 47.4971 11.9257 47.3874 11.8846C47.2914 11.8434 47.1954 11.8229 47.0994 11.8229V11.432H50.2674V11.9874C50.816 11.48 51.5154 11.2263 52.3657 11.2263C53.1337 11.2263 53.792 11.3771 54.3406 11.6789C54.9029 11.9669 55.3417 12.3714 55.6571 12.8926C55.904 12.3851 56.2811 11.9806 56.7886 11.6789C57.3097 11.3771 57.8926 11.2263 58.5371 11.2263C59.8263 11.2263 60.7863 11.6103 61.4171 12.3783C62.048 13.1463 62.3634 14.1406 62.3634 15.3611V20.2777Z" fill="#2B7BCB"/>
<path d="M70.6539 21.1417C69.6391 21.1417 68.7408 20.9291 67.9591 20.504C67.1911 20.0651 66.5876 19.4686 66.1488 18.7143C65.7236 17.96 65.5111 17.1097 65.5111 16.1634C65.5111 15.2309 65.7236 14.3806 66.1488 13.6126C66.5876 12.8446 67.1979 12.2411 67.9796 11.8023C68.7613 11.3497 69.6528 11.1234 70.6539 11.1234C71.6139 11.1234 72.4848 11.3429 73.2665 11.7817C74.0482 12.2069 74.6653 12.8034 75.1179 13.5714C75.5705 14.3257 75.7968 15.1897 75.7968 16.1634C75.7968 17.0137 75.5911 17.8229 75.1796 18.5909C74.7819 19.3451 74.1922 19.9623 73.4105 20.4423C72.6288 20.9086 71.7099 21.1417 70.6539 21.1417ZM70.6539 18.776C71.4631 18.776 72.1145 18.5429 72.6082 18.0766C73.1156 17.5966 73.3693 16.9794 73.3693 16.2251C73.3693 15.4434 73.1156 14.7989 72.6082 14.2914C72.1145 13.784 71.4631 13.5303 70.6539 13.5303C69.8996 13.5303 69.2688 13.784 68.7613 14.2914C68.2539 14.7851 68.0002 15.4091 68.0002 16.1634C68.0002 16.9589 68.2539 17.5966 68.7613 18.0766C69.2688 18.5429 69.8996 18.776 70.6539 18.776Z" fill="#2B7BCB"/>
<path d="M88.6729 20.2777C88.6729 20.3463 88.7209 20.4011 88.8169 20.4423C88.9266 20.4834 89.0363 20.504 89.1461 20.504V20.8949H85.5255V20.504C85.6352 20.504 85.7381 20.4834 85.8341 20.4423C85.9438 20.4011 85.9986 20.3463 85.9986 20.2777V15.9989C85.9986 15.2994 85.8272 14.7029 85.4843 14.2091C85.1415 13.7017 84.6272 13.448 83.9415 13.448C83.2421 13.448 82.6729 13.6811 82.2341 14.1474C81.8089 14.6137 81.5963 15.2857 81.5963 16.1634V20.2777C81.5963 20.3463 81.6443 20.4011 81.7403 20.4423C81.8501 20.4834 81.9598 20.504 82.0695 20.504V20.8949H78.4695V20.504C78.5792 20.504 78.6821 20.4834 78.7781 20.4423C78.8878 20.4011 78.9426 20.3463 78.9426 20.2777V12.0491C78.9426 11.9806 78.8878 11.9257 78.7781 11.8846C78.6821 11.8434 78.5861 11.8229 78.4901 11.8229V11.432H81.5963V12.2754C81.9529 11.9463 82.3712 11.6926 82.8512 11.5143C83.3449 11.3223 83.8455 11.2263 84.3529 11.2263C85.2306 11.2263 85.9918 11.4114 86.6363 11.7817C87.2946 12.152 87.7952 12.6526 88.1381 13.2834C88.4946 13.9006 88.6729 14.5931 88.6729 15.3611V20.2777Z" fill="#2B7BCB"/>
<path d="M96.8385 11C97.8945 11 98.8065 11.2331 99.5745 11.6994C100.343 12.152 100.925 12.7691 101.323 13.5509C101.721 14.3326 101.92 15.1966 101.92 16.1429C101.92 16.4309 101.899 16.7189 101.858 17.0069H94.3288C94.3837 17.6651 94.6717 18.1794 95.1928 18.5497C95.7139 18.92 96.3379 19.1051 97.0648 19.1051C97.5585 19.1051 97.9699 19.0366 98.2991 18.8994C98.6419 18.7623 98.9437 18.5566 99.2042 18.2823C99.2317 18.2274 99.2454 18.1931 99.2454 18.1794C99.2454 18.1246 99.2248 18.0697 99.1837 18.0149C99.1425 17.9463 99.1014 17.8983 99.0602 17.8709L99.3071 17.5623L101.591 19.352L101.364 19.6606C101.159 19.5371 101.015 19.5234 100.932 19.6194C99.9722 20.7714 98.6831 21.3474 97.0648 21.3474C96.0225 21.3474 95.1037 21.1211 94.3082 20.6686C93.5128 20.2023 92.8957 19.5851 92.4568 18.8171C92.0317 18.0354 91.8191 17.1714 91.8191 16.2251C91.8191 15.224 92.0317 14.3257 92.4568 13.5303C92.8819 12.7349 93.4717 12.1177 94.2259 11.6789C94.9939 11.2263 95.8648 11 96.8385 11ZM99.4511 15.0937C99.3962 14.5314 99.1082 14.0583 98.5871 13.6743C98.0797 13.2766 97.5037 13.0777 96.8591 13.0777C96.2145 13.0777 95.6591 13.2766 95.1928 13.6743C94.7265 14.0583 94.4454 14.5314 94.3494 15.0937H99.4511Z" fill="#2B7BCB"/>
<path d="M115.708 11.8229C115.42 11.8229 115.242 11.8777 115.173 11.9874L107.973 26.1611C107.96 26.1749 107.953 26.1954 107.953 26.2229C107.953 26.3051 108.001 26.3737 108.097 26.4286C108.193 26.4834 108.316 26.5109 108.467 26.5109V26.9017H104.6V26.5109C104.888 26.5109 105.066 26.456 105.134 26.3463L108.488 19.7429L104.27 11.9669C104.216 11.8709 104.037 11.8229 103.736 11.8229V11.432H107.541V11.8229C107.377 11.8229 107.274 11.8571 107.233 11.9257C107.205 11.9943 107.219 12.0697 107.274 12.152L109.886 16.9863L112.334 12.1726C112.348 12.1589 112.355 12.1383 112.355 12.1109C112.355 12.0286 112.307 11.96 112.211 11.9051C112.115 11.8503 111.992 11.8229 111.841 11.8229V11.432H115.708V11.8229Z" fill="#2B7BCB"/>
<path d="M16.5772 15.5737C16.5784 15.7203 16.5338 15.8636 16.4498 15.9837C16.3657 16.1038 16.2463 16.1947 16.1082 16.2438L13.2744 17.2743L12.2443 20.1077C12.1935 20.2445 12.1021 20.3625 11.9823 20.4458C11.8625 20.5291 11.7201 20.5737 11.5742 20.5737C11.4283 20.5737 11.2859 20.5291 11.1661 20.4458C11.0464 20.3625 10.9549 20.2445 10.9042 20.1077L9.87364 17.2712L7.04023 16.2438C6.90344 16.193 6.78548 16.1016 6.70217 15.9818C6.61887 15.862 6.57422 15.7196 6.57422 15.5737C6.57422 15.4278 6.61887 15.2854 6.70217 15.1656C6.78548 15.0459 6.90344 14.9545 7.04023 14.9037L9.87676 13.8731L10.9042 11.0397C10.9549 10.903 11.0464 10.785 11.1661 10.7017C11.2859 10.6184 11.4283 10.5737 11.5742 10.5737C11.7201 10.5737 11.8625 10.6184 11.9823 10.7017C12.1021 10.785 12.1935 10.903 12.2443 11.0397L13.2748 13.8763L16.1082 14.9037C16.2463 14.9528 16.3657 15.0437 16.4498 15.1638C16.5338 15.2839 16.5784 15.4272 16.5772 15.5737Z" fill="#32A98C"/>
</svg>
