<svg width="32" height="32" viewBox="0 0 32 32" fill="none" xmlns="http://www.w3.org/2000/svg">
<path d="M26 15.9968C26.0022 16.2899 25.9131 16.5764 25.7451 16.8165C25.577 17.0566 25.3383 17.2383 25.0622 17.3365L19.3962 19.397L17.3366 25.062C17.2351 25.3355 17.0524 25.5714 16.8129 25.7379C16.5734 25.9045 16.2887 25.9938 15.997 25.9938C15.7052 25.9938 15.4205 25.9045 15.181 25.7379C14.9416 25.5714 14.7588 25.3355 14.6573 25.062L12.5968 19.3907L6.93173 17.3365C6.65825 17.235 6.42239 17.0522 6.25583 16.8127C6.08928 16.5733 6 16.2885 6 15.9968C6 15.7051 6.08928 15.4204 6.25583 15.1809C6.42239 14.9414 6.65825 14.7586 6.93173 14.6571L12.6031 12.5967L14.6573 6.93161C14.7588 6.65813 14.9416 6.42227 15.181 6.25571C15.4205 6.08915 15.7052 5.99988 15.997 5.99988C16.2887 5.99988 16.5734 6.08915 16.8129 6.25571C17.0524 6.42227 17.2351 6.65813 17.3366 6.93161L19.3971 12.603L25.0622 14.6571C25.3383 14.7553 25.577 14.9371 25.7451 15.1772C25.9131 15.4173 26.0022 15.7038 26 15.9968Z" fill="#32A98C"/>
</svg>
